HIERARCHY
ROOT Hips
{
  OFFSET -43.3411 73.6987 0
  CHANNELS 6 Xposition Yposition Zposition Zrotation Xrotation Yrotation
  JOINT Bip01_Pelvis
  {
    OFFSET 0 0 0
    CHANNELS 6 Xposition Yposition Zposition Zrotation Xrotation Yrotation
    JOINT BN_Tail_01
    {
      OFFSET -18.6385 -9.591 -2.032e-005
      CHANNELS 6 Xposition Yposition Zposition Zrotation Xrotation Yrotation
      JOINT BN_Tail_02
      {
        OFFSET 20.9743 0 0
        CHANNELS 6 Xposition Yposition Zposition Zrotation Xrotation Yrotation
        JOINT BN_Tail_03
        {
          OFFSET 20.3015 0 0
          CHANNELS 6 Xposition Yposition Zposition Zrotation Xrotation Yrotation
          JOINT BN_Tail_04
          {
            OFFSET 21.6394 -9.91821e-005 0
            CHANNELS 6 Xposition Yposition Zposition Zrotation Xrotation Yrotation
            End Site
            {
              OFFSET 0 0 0
            }
          }
        }
      }
    }
    JOINT Bip01_Spine
    {
      OFFSET 22.1878 -0.659386 3.048e-005
      CHANNELS 6 Xposition Yposition Zposition Zrotation Xrotation Yrotation
      JOINT Bip01_R_Thigh
      {
        OFFSET -22.1873 0.677109 -17.1024
        CHANNELS 6 Xposition Yposition Zposition Zrotation Xrotation Yrotation
        JOINT Bip01_R_Calf
        {
          OFFSET 34.2647 0 0
          CHANNELS 6 Xposition Yposition Zposition Zrotation Xrotation Yrotation
          JOINT Bip01_R_HorseLink
          {
            OFFSET 20.4429 0 0
            CHANNELS 6 Xposition Yposition Zposition Zrotation Xrotation Yrotation
            JOINT Bip01_R_Foot
            {
              OFFSET 16.5673 0 0
              CHANNELS 6 Xposition Yposition Zposition Zrotation Xrotation Yrotation
              JOINT Bip01_R_Toe0
              {
                OFFSET 9.18784 6.94841 0
                CHANNELS 6 Xposition Yposition Zposition Zrotation Xrotation Yrotation
                JOINT Bip01_R_Toe0Nub
                {
                  OFFSET 1.01907 0 0
                  CHANNELS 6 Xposition Yposition Zposition Zrotation Xrotation Yrotation
                  End Site
                  {
                    OFFSET 0 0 0
                  }
                }
              }
            }
          }
        }
      }
      JOINT Bip01_L_Thigh
      {
        OFFSET -22.1873 0.67701 17.1024
        CHANNELS 6 Xposition Yposition Zposition Zrotation Xrotation Yrotation
        JOINT Bip01_L_Calf
        {
          OFFSET 34.2647 0 0
          CHANNELS 6 Xposition Yposition Zposition Zrotation Xrotation Yrotation
          JOINT Bip01_L_HorseLink
          {
            OFFSET 20.4429 0 0
            CHANNELS 6 Xposition Yposition Zposition Zrotation Xrotation Yrotation
            JOINT Bip01_L_Foot
            {
              OFFSET 16.5673 0 0
              CHANNELS 6 Xposition Yposition Zposition Zrotation Xrotation Yrotation
              JOINT Bip01_L_Toe0
              {
                OFFSET 9.18784 6.9484 1.14441e-005
                CHANNELS 6 Xposition Yposition Zposition Zrotation Xrotation Yrotation
                JOINT Bip01_L_Toe0Nub
                {
                  OFFSET 1.01907 0 0
                  CHANNELS 6 Xposition Yposition Zposition Zrotation Xrotation Yrotation
                  End Site
                  {
                    OFFSET 0 0 0
                  }
                }
              }
            }
          }
        }
      }
      JOINT Bip01_Spine1
      {
        OFFSET 39.3372 -0.0249863 0
        CHANNELS 6 Xposition Yposition Zposition Zrotation Xrotation Yrotation
        JOINT Bip01_Neck
        {
          OFFSET 34.2837 -15.5934 -4.318e-005
          CHANNELS 6 Xposition Yposition Zposition Zrotation Xrotation Yrotation
          JOINT Bip01_R_Clavicle
          {
            OFFSET -17.9452 -11.3131 -6.19287
            CHANNELS 6 Xposition Yposition Zposition Zrotation Xrotation Yrotation
            JOINT Bip01_R_UpperArm
            {
              OFFSET 17.4439 1.52588e-005 -2.28882e-005
              CHANNELS 6 Xposition Yposition Zposition Zrotation Xrotation Yrotation
              JOINT Bip01_R_Forearm
              {
                OFFSET 30.6251 1.14441e-005 0
                CHANNELS 6 Xposition Yposition Zposition Zrotation Xrotation Yrotation
                JOINT Bip01_R_Hand
                {
                  OFFSET 31.2039 0 0
                  CHANNELS 6 Xposition Yposition Zposition Zrotation Xrotation Yrotation
                  JOINT Bip01_R_Finger0
                  {
                    OFFSET 22.1039 0.255862 -0.37902
                    CHANNELS 6 Xposition Yposition Zposition Zrotation Xrotation Yrotation
                    JOINT Bip01_R_Finger0Nub
                    {
                      OFFSET 12.0552 0 0
                      CHANNELS 6 Xposition Yposition Zposition Zrotation Xrotation Yrotation
                      End Site
                      {
                        OFFSET 0 0 0
                      }
                    }
                  }
                }
              }
            }
          }
          JOINT Bip01_L_Clavicle
          {
            OFFSET -17.9452 -11.3132 6.19281
            CHANNELS 6 Xposition Yposition Zposition Zrotation Xrotation Yrotation
            JOINT Bip01_L_UpperArm
            {
              OFFSET 17.444 0 1.14441e-005
              CHANNELS 6 Xposition Yposition Zposition Zrotation Xrotation Yrotation
              JOINT Bip01_L_Forearm
              {
                OFFSET 30.6251 0 0
                CHANNELS 6 Xposition Yposition Zposition Zrotation Xrotation Yrotation
                JOINT Bip01_L_Hand
                {
                  OFFSET 31.204 0 0
                  CHANNELS 6 Xposition Yposition Zposition Zrotation Xrotation Yrotation
                  JOINT Bip01_L_Finger0
                  {
                    OFFSET 22.1039 0.255856 0.379024
                    CHANNELS 6 Xposition Yposition Zposition Zrotation Xrotation Yrotation
                    JOINT Bip01_L_Finger0Nub
                    {
                      OFFSET 12.0552 0 0
                      CHANNELS 6 Xposition Yposition Zposition Zrotation Xrotation Yrotation
                      End Site
                      {
                        OFFSET 0 0 0
                      }
                    }
                  }
                }
              }
            }
          }
          JOINT Bip01_Neck1
          {
            OFFSET 14.9359 -0.0106278 0
            CHANNELS 6 Xposition Yposition Zposition Zrotation Xrotation Yrotation
            JOINT Bip01_Head
            {
              OFFSET 14.3578 0.505501 0
              CHANNELS 6 Xposition Yposition Zposition Zrotation Xrotation Yrotation
              JOINT BN_Ear_L_01
              {
                OFFSET 3.76994 -2.35629 12.3444
                CHANNELS 6 Xposition Yposition Zposition Zrotation Xrotation Yrotation
                End Site
                {
                  OFFSET 0 0 0
                }
              }
              JOINT BN_Ear_R_01
              {
                OFFSET 3.76995 -2.35622 -12.3442
                CHANNELS 6 Xposition Yposition Zposition Zrotation Xrotation Yrotation
                End Site
                {
                  OFFSET 0 0 0
                }
              }
              JOINT BN_Mouth_01
              {
                OFFSET 11.8395 10.8645 1.27e-005
                CHANNELS 6 Xposition Yposition Zposition Zrotation Xrotation Yrotation
                JOINT BN_Tongue_01
                {
                  OFFSET 9.73752 3.21674 1.016e-005
                  CHANNELS 6 Xposition Yposition Zposition Zrotation Xrotation Yrotation
                  JOINT BN_Tongue_02
                  {
                    OFFSET 9.04304 0.053505 0
                    CHANNELS 6 Xposition Yposition Zposition Zrotation Xrotation Yrotation
                    End Site
                    {
                      OFFSET 0 0 0
                    }
                  }
                }
                JOINT BN_Beard_01
                {
                  OFFSET 6.93466 -0.751793 0
                  CHANNELS 6 Xposition Yposition Zposition Zrotation Xrotation Yrotation
                  JOINT BN_Beard_02
                  {
                    OFFSET 13.0965 1.52588e-005 0
                    CHANNELS 6 Xposition Yposition Zposition Zrotation Xrotation Yrotation
                    End Site
                    {
                      OFFSET 0 0 0
                    }
                  }
                }
              }
              JOINT Bip01_HeadNub
              {
                OFFSET 25.6158 0 0
                CHANNELS 6 Xposition Yposition Zposition Zrotation Xrotation Yrotation
                End Site
                {
                  OFFSET 0 0 0
                }
              }
            }
          }
        }
      }
    }
  }
}
MOTION
Frames:	4
Frame Time:	0.0333333
-43.3099 59.043 0 100.072 -86.003 160.913 0 0 0 -92.7882 -12.3329 -80.511 -18.6385 -9.591 0 12.16 -4.0768 177.689 20.9743 -1.42109e-014 0 -34.6379 -21.0331 32.0083 20.3014 6.67572e-006 -7.10543e-015 -21.0813 -24.023 32.3404 21.6394 -3.21865e-006 7.6294e-006 -13.1103 -12.0535 43.0149 21.2631 -5.38108 3.52045 20.2131 -0.400175 -2.34442 -18.9198 12.5401 -19.7779 -142.208 -14.5966 173.534 34.2647 3.8147e-006 1.90735e-006 -98.4029 -1.23021e-005 9.11305e-006 20.4429 -3.8147e-006 5.72205e-006 73.9402 -4.24238e-007 -7.80187e-007 16.5673 -9.53674e-007 -1.90735e-006 -18.5768 -23.4524 -4.16709 9.18786 6.9484 0 73.0773 -1.38056 -0.0303644 1.01907 0 1.90735e-006 -5.58783e-007 2.28717e-008 2.63555e-007 -17.5187 12.3028 14.3974 -150.442 27.8163 -164.966 34.2647 5.72205e-006 -1.90735e-006 -97.6511 -4.70572e-006 -2.00825e-005 20.4429 -7.10543e-015 3.55271e-015 113.963 -1.93524e-006 -6.96722e-006 16.5673 -1.90735e-006 1.90735e-006 -36.8775 24.3267 1.32188 9.18784 6.9484 -1.90735e-006 95.8714 -5.25102e-007 3.21369e-007 1.01907 -9.53675e-007 0 -179.96 -8.23122e-006 1.69706e-005 39.3469 -0.0230103 0.000827908 22.8236 -1.90446 -2.66313 34.2782 -15.5923 -0.00130296 -24.3922 6.10321 0.696905 -10.7352 -18.8167 -4.34497 -157.331 -39.0548 109.099 17.444 -7.6294e-006 1.90735e-006 32.0995 29.275 -86.2852 30.6251 0 -9.53674e-007 -72.8932 3.17478e-006 8.35e-006 31.204 -9.53676e-007 -9.53674e-007 177.523 52.6388 171.575 22.1039 0.25584 -0.37903 -9.65556 -3.46736 -21.5629 12.0552 -1.1921e-006 1.90735e-006 179.96 -9.62846e-006 1.73348e-005 -10.8844 -17.4997 7.96958 -153.671 48.3544 -104.992 17.444 -1.52588e-005 6.67572e-006 35.4009 -33.7306 83.8097 30.6251 -7.62941e-006 -1.90735e-006 -78.0003 2.57285e-006 1.04202e-005 31.204 1.90735e-006 2.86102e-006 -165.788 -75.3332 139.978 22.1039 0.255845 0.379066 7.02443 -1.21093 -5.26763 12.0552 0 0 -3.39177e-007 9.83534e-006 -1.98836e-007 14.9334 -0.0105133 0.000302315 -9.34439 -1.62149 0.562293 14.3578 0.50549 4.76837e-007 6.79162 -4.11844 -4.57358 3.76997 -2.35629 12.3444 178.051 31.0701 -44.2841 3.76994 -2.35621 -12.3442 -3.5294 32.36 151.284 11.8395 10.8646 0 -166.915 -0.0422516 -179.995 9.73753 3.21676 -0.00141478 -0.76938 2.78844e-008 9.47513e-008 5.27074 0.746262 0.153591 -5.14606 -0.0383074 -0.00522289 6.93467 -0.751778 0.00105333 -110.508 -0.66179 3.58767 13.0966 7.10544e-015 0.00796032 -11.3676 0.0240048 15.9141 25.6158 -1.52588e-005 -8.88179e-016 9.41103e-009 -1.31307e-008 -1.28027e-007 
-43.3099 57.7428 -9.65721e-009 100.404 -85.9441 160.716 0 0 0 -92.8161 -9.98937 -81.0358 -18.6385 -9.591 2.66454e-015 11.3035 -4.67511 176.142 20.9743 -5.68434e-014 8.88178e-016 -34.6091 -20.0722 31.4009 20.3014 6.67572e-006 3.55271e-014 -21.7888 -23.658 31.7681 21.6394 -3.21865e-006 7.6294e-006 -17.0738 -12.5039 42.6841 21.4931 -4.49504 3.35427 20.2649 -0.523996 -1.86914 -19.2597 11.8483 -19.7312 -136.749 -13.8322 173.727 34.2647 3.8147e-006 1.90735e-006 -105.104 -3.457e-006 1.03376e-005 20.4429 -3.8147e-006 5.72205e-006 81.9319 -5.37249e-007 -6.16304e-007 16.5673 -9.53674e-007 -1.90735e-006 -17.3446 -22.95 -3.00772 9.18786 6.9484 -5.25065e-010 73.2182 -1.6048 -0.214868 1.01907 -1.86517e-014 1.90735e-006 -5.58783e-007 2.28717e-008 2.63555e-007 -18.1436 11.535 14.454 -147.628 29.3489 -166.137 34.2647 5.72205e-006 -1.90735e-006 -92.7101 1.52522e-006 -1.90118e-005 20.4429 -7.10543e-015 -7.10543e-015 115.329 4.2697e-006 -1.16694e-005 16.5673 -1.90735e-006 1.90735e-006 -42.0989 25.4497 2.42957 9.18784 6.9484 -1.90826e-006 100.131 -3.20609e-007 3.27171e-007 1.01907 -9.53675e-007 3.55271e-015 -179.96 -8.23122e-006 1.69704e-005 39.3475 -0.0230103 0.000827908 25.255 -1.63707 -2.25129 34.2782 -15.5923 -0.00130296 -23.7692 5.85865 0.828403 -10.9208 -18.6811 -4.46495 -157.768 -40.6498 107.838 17.444 -7.6294e-006 1.90735e-006 32.1352 29.8927 -83.3508 30.6251 -7.10544e-015 -9.53674e-007 -68.2808 3.66375e-006 8.27774e-006 31.204 -9.53676e-007 -9.53674e-007 175.999 53.4426 177.814 22.1039 0.25584 -0.37903 -8.39697 -2.41546 -28.7736 12.0552 -1.1921e-006 1.90735e-006 179.96 -9.6285e-006 1.73349e-005 -11.0986 -17.4166 7.85471 -154.746 45.898 -104.401 17.444 -1.52588e-005 6.67572e-006 33.8211 -40.7834 83.2737 30.6251 -7.62941e-006 -1.90735e-006 -79.8963 -8.15885e-006 1.25055e-005 31.204 1.90735e-006 2.86102e-006 -168.718 -73.9444 128.932 22.1039 0.255845 0.379066 7.57875 -1.12132 -9.69798 12.0552 0 1.77635e-014 -3.39177e-007 9.83534e-006 -1.98836e-007 14.9334 -0.0105133 0.000302315 -7.64614 -1.62545 0.603346 14.3578 0.50549 4.77182e-007 5.37796 -3.90733 -5.07896 3.76997 -2.35629 12.3444 176.748 31.6431 -43.6877 3.76994 -2.35621 -12.3442 -5.07088 32.9085 152.182 11.8395 10.8646 -2.93111e-009 -167.377 -0.0280609 -179.997 9.73753 3.21676 -0.00141478 -0.724178 2.77187e-008 9.46562e-008 5.27074 0.746262 0.153591 -5.35474 -0.0382907 -0.00533518 6.93467 -0.751778 0.00105333 -111.341 -0.622265 2.33587 13.0966 3.13776e-011 0.00796032 -8.49899 -0.0773595 13.7919 25.6158 -1.52588e-005 -3.55271e-015 9.41103e-009 -1.31307e-008 -1.28027e-007 
-43.3099 56.6436 -2.01788e-008 100.484 -85.9746 160.988 0 0 0 -92.7531 -6.94472 -81.8361 -18.6385 -9.591 8.88178e-016 9.27043 -5.38779 174.335 20.9743 -4.26326e-014 1.77636e-015 -34.3098 -17.5693 29.8637 20.3014 6.67572e-006 0 -23.4783 -22.7074 30.2573 21.6394 -3.21865e-006 7.6294e-006 -22.6953 -13.0857 41.6241 21.7418 -3.33492 3.08686 19.9348 -0.581345 -1.30754 -19.7552 10.7531 -19.6351 -129.888 -13.1778 173.939 34.2647 3.8147e-006 1.90735e-006 -110.317 -4.03634e-006 1.00207e-005 20.4429 -3.8147e-006 5.72205e-006 89.1291 -5.93416e-007 -2.61472e-007 16.5673 -9.53674e-007 -1.90735e-006 -15.2716 -22.4096 -1.60777 9.18786 6.9484 -7.07532e-010 72.5226 -2.00809 -0.348738 1.01907 7.10542e-015 1.90735e-006 -5.58783e-007 2.28717e-008 2.63555e-007 -18.9745 10.405 14.5592 -142.638 30.7607 -168.489 34.2647 5.72205e-006 -1.90735e-006 -86.1625 -1.12863e-005 -1.8296e-005 20.4429 7.10543e-015 -1.77636e-015 111.216 4.49639e-006 -1.26932e-005 16.5673 -1.90735e-006 1.90735e-006 -52.9842 25.3016 8.29198 9.18784 6.9484 -1.89995e-006 110.069 -1.54425e-007 2.5179e-007 1.01907 -9.53675e-007 -3.55271e-015 -179.96 -8.23109e-006 1.69703e-005 39.348 -0.0230103 0.000827908 27.4784 -1.20321 -1.74011 34.2782 -15.5923 -0.00130297 -22.3977 5.23668 0.859049 -11.347 -18.3659 -4.70365 -158.88 -43.3945 105.757 17.444 -7.6294e-006 1.90735e-006 32.6068 32.4499 -79.2467 30.6251 7.10544e-015 -9.53674e-007 -62.9807 4.11155e-006 8.19102e-006 31.204 -9.53676e-007 -9.53674e-007 175.867 56.4247 -172.305 22.1039 0.25584 -0.37903 -6.08985 -1.8848 -39.9265 12.0552 -1.1921e-006 1.90735e-006 179.96 -9.62857e-006 1.73348e-005 -11.5313 -17.2349 7.6289 -156.684 41.4182 -103.403 17.444 -1.52588e-005 6.67572e-006 29.7146 -49.2432 81.898 30.6251 -7.62941e-006 -1.90735e-006 -81.0485 1.06147e-006 1.097e-005 31.204 1.90735e-006 2.86102e-006 -170.558 -72.0278 120.049 22.1039 0.255845 0.379066 7.80542 -1.25303 -12.7822 12.0552 -1.77636e-015 -1.77635e-014 -3.39177e-007 9.83534e-006 -1.98836e-007 14.9334 -0.0105133 0.000302315 -5.85822 -1.70081 0.662428 14.3578 0.50549 4.7758e-007 3.36811 -3.36167 -5.43358 3.76997 -2.35629 12.3444 174.816 32.6571 -41.8527 3.76994 -2.35621 -12.3442 -7.07459 33.6204 154.043 11.8395 10.8646 -4.55687e-009 -167.905 -0.0443878 -179.995 9.73753 3.21676 -0.00141478 -0.679852 2.72027e-008 9.46987e-008 5.27074 0.746262 0.153591 -5.55937 -0.0382714 -0.0054719 6.93467 -0.751778 0.00105333 -113.966 -0.718634 0.729753 13.0966 7.36763e-011 0.00796032 -4.57922 -0.208827 10.5555 25.6158 -1.52588e-005 8.88179e-015 9.41103e-009 -1.31307e-008 -1.28027e-007 
-43.3099 55.7345 -2.24495e-008 100.374 -86.0777 161.671 0 0 0 -92.5678 -3.35657 -82.8619 -18.6385 -9.591 -1.33227e-015 6.34145 -6.20432 172.331 20.9743 -2.84217e-014 1.77636e-015 -33.3693 -13.8472 27.6891 20.3014 6.67572e-006 -7.10543e-015 -25.6148 -21.3037 27.9948 21.6394 -3.21865e-006 7.6294e-006 -29.4045 -13.773 39.8517 21.9558 -1.95312 2.71889 19.2768 -0.620692 -0.667898 -20.3093 9.30711 -19.485 -121.77 -12.6344 174.174 34.2647 3.8147e-006 1.90735e-006 -114.085 -4.60259e-006 9.52461e-006 20.4429 -3.8147e-006 5.72205e-006 95.517 -5.43197e-007 1.83298e-007 16.5673 -9.53674e-007 -1.90735e-006 -12.5234 -21.78 -0.0472782 9.18786 6.9484 -4.53806e-010 71.1234 -2.5799 -0.451507 1.01907 7.10542e-015 1.90735e-006 -5.58783e-007 2.28717e-008 2.63555e-007 -19.9089 8.93566 14.7155 -136.172 31.569 -171.228 34.2647 5.72205e-006 -1.90735e-006 -79.6206 -5.15226e-006 -1.86349e-005 20.4429 -2.13163e-014 -7.10543e-015 104.252 -3.46092e-006 -1.08285e-005 16.5673 -1.90735e-006 1.90735e-006 -62.751 23.1275 14.4902 9.18784 6.9484 -1.88074e-006 120.105 -1.19853e-007 9.91325e-008 1.01907 -9.53675e-007 -5.32907e-015 -179.96 -8.23093e-006 1.69703e-005 39.3486 -0.0230103 0.000827908 29.4974 -0.625994 -1.15522 34.2782 -15.5923 -0.00130297 -20.4263 4.30558 0.822299 -11.9527 -17.8878 -5.03455 -160.446 -46.3818 103.671 17.444 -7.6294e-006 1.90735e-006 31.8916 37.9203 -74.9878 30.6251 -4.97381e-014 -9.53674e-007 -53.0642 -1.74245e-006 1.27309e-005 31.204 -9.53676e-007 -9.53674e-007 173.989 60.5818 -161.486 22.1039 0.25584 -0.37903 -3.39501 -2.12008 -49.5788 12.0552 -1.1921e-006 1.90734e-006 179.96 -9.6286e-006 1.73348e-005 -12.1303 -16.9577 7.31487 -159.157 35.5211 -102.283 17.444 -1.52588e-005 6.67572e-006 23.2742 -58.5527 79.4197 30.6251 -7.62941e-006 -1.90735e-006 -81.5832 7.11978e-007 1.10584e-005 31.204 1.90735e-006 2.86102e-006 -171.513 -69.8651 113.063 22.1039 0.255845 0.379066 7.79332 -1.4946 -14.8533 12.0552 -9.76999e-015 -1.5099e-014 -3.39177e-007 9.83534e-006 -1.98836e-007 14.9334 -0.0105133 0.000302315 -3.98002 -1.82414 0.731054 14.3578 0.50549 4.78002e-007 0.882915 -2.55424 -5.6356 3.76997 -2.35629 12.3444 172.223 34.065 -38.7529 3.76994 -2.35621 -12.3442 -9.53516 34.4645 156.864 11.8395 10.8646 -4.85186e-009 -168.496 -0.0263519 -179.997 9.73753 3.21676 -0.00141478 -0.635087 2.64183e-008 9.4849e-008 5.27074 0.746262 0.153591 -5.76603 -0.0382514 -0.0056099 6.93467 -0.751778 0.00105333 -117.944 -0.912359 -1.13678 13.0966 1.24601e-010 0.00796032 0.0249805 -0.376884 6.52235 25.6158 -1.52588e-005 6.21725e-015 9.41103e-009 -1.31307e-008 -1.28027e-007 
